<svg id="Group_4" data-name="Group 4" xmlns="http://www.w3.org/2000/svg" xmlns:xlink="http://www.w3.org/1999/xlink" width="160.204" height="144.547" viewBox="0 0 160.204 144.547">
  <defs>
    <clipPath id="clip-path">
      <rect id="Rectangle_2" data-name="Rectangle 2" width="160.204" height="144.547" fill="none"/>
    </clipPath>
  </defs>
  <g id="Group_3" data-name="Group 3" clip-path="url(#clip-path)">
    <path id="Path_10" data-name="Path 10" d="M79.586,46.8c10.8,0,20.06-9.736,20.06-20.15,0-9.425-8.375-17.077-14.49-22.664-1.194-1.09-2.3-2.093-3.206-3A3.082,3.082,0,0,0,79.467.008,3.35,3.35,0,0,0,77.06,1.161c-3.1,3.577-4.223,8.3-5.122,12.086-.06.244-.12.5-.184.769a3.346,3.346,0,0,0-5.71-1.856c-1.959,2.019-6.516,7.479-6.516,14.49,0,10.414,9.257,20.15,20.059,20.15ZM81.95,39.14a3.144,3.144,0,0,1-2.364.883,2.533,2.533,0,0,1-2.364-.883,3.347,3.347,0,0,1,0-4.727l2.364-2.364,2.364,2.364a3.343,3.343,0,0,1,0,4.728ZM67.524,21.5a5.968,5.968,0,0,0,4.493,1.906c4.383,0,5.47-4.577,6.429-8.616a39.129,39.129,0,0,1,1.839-6.2c5.195,4.749,12.682,11.582,12.682,18.058a13.332,13.332,0,0,1-3.423,8.926,9.994,9.994,0,0,0-2.858-5.891l-4.727-4.727a3.34,3.34,0,0,0-4.723,0l0,0L72.5,29.682a9.979,9.979,0,0,0-2.858,5.891,13.32,13.32,0,0,1-3.423-8.926,11.759,11.759,0,0,1,1.3-5.148Zm45.494,39.256V56.837A13.385,13.385,0,0,0,99.645,43.464a3.344,3.344,0,0,0,0,6.687,6.692,6.692,0,0,1,6.687,6.687v3.343H52.84V56.837a6.693,6.693,0,0,1,6.686-6.687,3.344,3.344,0,0,0,0-6.687A13.386,13.386,0,0,0,46.153,56.837v3.918A10.029,10.029,0,0,0,49.5,80.239h60.178a10.029,10.029,0,0,0,3.343-19.484m-50.151,12.8H49.5a3.344,3.344,0,0,1,0-6.687h13.37Zm13.373,0H69.556V66.866h6.687Zm13.373,0H82.929V66.866h6.687Zm20.059,0H96.3V66.866h13.373a3.344,3.344,0,0,1,0,6.687Z" fill="#18e8b7"/>
    <path id="Path_11" data-name="Path 11" d="M0,136V114.037c0-2.165.95-3.5,3.571-3.5H17.554v3.571H3.875v8.625H16.68v3.572H3.875V136Z" fill="#fff"/>
    <path id="Path_12" data-name="Path 12" d="M21.66,111.226a2.5,2.5,0,0,1,2.47-2.508,2.466,2.466,0,0,1,2.432,2.508,2.433,2.433,0,0,1-2.432,2.469,2.464,2.464,0,0,1-2.47-2.469M26.029,136H22.267V117.381h3.762Z" fill="#fff"/>
    <path id="Path_13" data-name="Path 13" d="M32.148,136V124.9c0-4.52,2.583-7.9,7.446-7.9a7.956,7.956,0,0,1,3.344.684v3.723a6.02,6.02,0,0,0-3-.8c-2.507,0-4.027,1.71-4.027,4.446V136Z" fill="#fff"/>
    <path id="Path_14" data-name="Path 14" d="M44.536,126.575c0-5.357,3.838-9.726,9.423-9.726,5.623,0,9.118,4.065,9.118,9.27v1.521H48.183a6.038,6.038,0,0,0,6.194,5.432,5.9,5.9,0,0,0,5.432-3.039l2.888,1.482a8.892,8.892,0,0,1-8.282,4.9,9.552,9.552,0,0,1-9.879-9.841m14.78-1.367a5.1,5.1,0,0,0-5.4-4.978,5.5,5.5,0,0,0-5.584,4.978Z" fill="#fff"/>
    <path id="Path_15" data-name="Path 15" d="M77.709,130.982l3.268-1.6c.988,2.2,3.153,3.382,6.155,3.382,2.964,0,5.243-1.406,5.243-3.913,0-2.811-2.584-3.306-5.585-3.876-3.838-.76-8.587-2.014-8.587-7.409,0-4.217,3.838-7.408,8.663-7.408,3.875,0,7.333,1.824,8.853,5.319l-3.23,1.671a6.013,6.013,0,0,0-5.775-3.381c-2.584,0-4.673,1.52-4.673,3.686,0,2.735,2.7,3.343,5.774,3.951,3.8.76,8.436,2.013,8.436,7.409,0,4.483-3.99,7.6-9.119,7.6-4.293,0-7.9-1.938-9.423-5.434" fill="#fff"/>
    <path id="Path_16" data-name="Path 16" d="M101,144.547V126.652a9.624,9.624,0,0,1,9.916-9.727,9.732,9.732,0,0,1,9.879,9.727,9.463,9.463,0,0,1-9.727,9.8,8.563,8.563,0,0,1-6.307-2.774v10.866Zm16.033-17.857a6.136,6.136,0,1,0-12.272,0,6.137,6.137,0,1,0,12.272,0" fill="#fff"/>
    <path id="Path_17" data-name="Path 17" d="M123.879,126.652a9.917,9.917,0,1,1,9.954,9.8,9.8,9.8,0,0,1-9.954-9.8m16.071.038a6.155,6.155,0,1,0-6.117,6.193,6.137,6.137,0,0,0,6.117-6.193" fill="#fff"/>
    <path id="Path_18" data-name="Path 18" d="M149.3,129.311v-8.662h-3.686v-3.268H149.3v-4.825h3.762v4.825H160.2v3.268h-7.142V129.2c0,2.431,1.443,3.875,3.685,3.875a6.328,6.328,0,0,0,3.457-1.1v3.457a7.174,7.174,0,0,1-3.8,1.065c-4.635,0-7.1-2.926-7.1-7.182" fill="#fff"/>
  </g>
</svg>
