<svg xmlns="http://www.w3.org/2000/svg" width="18.215" height="18.215" viewBox="0 0 18.215 18.215">
  <path id="_2b2900e6a3fdb038737b6ec0c31e92f0" data-name="2b2900e6a3fdb038737b6ec0c31e92f0" d="M17.483,2H4.732A2.732,2.732,0,0,0,2,4.732v12.75a2.732,2.732,0,0,0,2.732,2.732h12.75a2.56,2.56,0,0,0,.446-.046l.273-.064h.109l.337-.128.118-.064c.091-.055.191-.1.282-.164a3.452,3.452,0,0,0,.346-.291l.064-.082a2.45,2.45,0,0,0,.246-.291l.082-.118a2.1,2.1,0,0,0,.164-.319.911.911,0,0,0,.064-.137c.046-.109.073-.228.109-.346v-.137a2.368,2.368,0,0,0,.091-.546V4.732A2.732,2.732,0,0,0,17.483,2ZM4.732,18.393a.911.911,0,0,1-.911-.911V13.557l3-3.005h0a.911.911,0,0,1,1.293,0l7.832,7.842Zm13.661-.911a.74.74,0,0,1-.137.455.857.857,0,0,1-.082.109L13.3,13.175l.8-.8a.911.911,0,0,1,1.293,0h0l3,3.005Zm0-4.681-1.712-1.694a2.805,2.805,0,0,0-3.862,0l-.8.8L9.4,9.286a2.805,2.805,0,0,0-3.862,0L3.821,10.98V4.732a.911.911,0,0,1,.911-.911h12.75a.911.911,0,0,1,.911.911Z" transform="translate(-2 -2)" fill="#fff"/>
</svg>
